<!-- Generated by IcoMoon.io -->
<svg version="1.1" xmlns="http://www.w3.org/2000/svg" width="123" height="32" viewBox="0 0 123 32">
<title>IMAGE-5</title>
<path fill="#fff" d="M29.445 28.571h-5.471l-0.748 3.429h-6.122l5.868-22.857h7.566l5.868 22.857h-6.25l-0.711-3.429zM28.483 24.169l-1.741-8.226-1.815 8.226h3.556z"></path>
<path fill="#fff" d="M53.941 9.143v22.857h-5.328l-5.086-12v12h-5.691v-22.857h5.334l5.086 12.211v-12.211h5.685z"></path>
<path fill="#fff" d="M70.555 13.594h-4.409v18.406h-6.21v-18.406h-4.39v-4.451h15.009v4.451z"></path>
<path fill="#fff" d="M83.072 28.571h-5.477l-0.748 3.429h-6.116l5.868-22.857h7.575l5.868 22.857h-6.259l-0.711-3.429zM82.113 24.157l-1.744-8.214-1.812 8.226 3.556-0.011z"></path>
<path fill="#fff" d="M100.57 16.974v-2.954c0-0.534-0.285-0.783-0.89-0.783h-1.279c-0.605 0-0.89 0.249-0.89 0.783v13.103c0 0.534 0.285 0.783 0.89 0.783h1.279c0.605 0 0.89-0.249 0.89-0.783v-3.809h-1.778v-3.954h7.992v8.226c0 2.669-1.428 4.414-5.226 4.414h-5.051c-3.805 0-5.229-1.746-5.229-4.414v-14.029c0-2.669 1.427-4.414 5.229-4.414h5.051c3.804 0 5.226 1.746 5.226 4.414v3.429l-6.214-0.011z"></path>
<path fill="#fff" d="M123.294 27.549v4.451h-14.013v-22.857h13.699v4.451h-7.474v4.663h6.436v4.451h-6.436v4.84h7.788z"></path>
<path fill="#fff" d="M11.987 0l-4.378 24.417-1.33-7.846h-6.279l4.016 15.429h7.221l6.459-26.286h105.599l-111.307-5.714z"></path>
</svg>
