<!-- Generated by IcoMoon.io -->
<svg version="1.1" xmlns="http://www.w3.org/2000/svg" width="118" height="32" viewBox="0 0 118 32">
<title>logo-antartica</title>
<path d="M18.858 26.181c-0.159 0.061-0.327 0.094-0.497 0.097l-1.88 0.058h-1.617c-1.327 1.473-2.912 2.696-4.677 3.607-1.258 0.621-2.649 0.928-4.053 0.892-0.864-0.023-1.718-0.18-2.533-0.465-0.742-0.254-1.427-0.649-2.017-1.164-0.542-0.464-0.972-1.044-1.257-1.697-0.285-0.673-0.386-1.409-0.292-2.133 0.064-1.082 0.447-2.12 1.101-2.987 0.514-0.638 1.185-1.133 1.949-1.435 0.693-0.258 1.435-0.364 2.173-0.31 0.579 0.033 1.152 0.137 1.705 0.31 0.346 0.144 0.637 0.396 0.828 0.718 0.154 0.253 0.22 0.55 0.185 0.844-0.023 0.127-0.071 0.248-0.141 0.356s-0.161 0.201-0.268 0.274c-0.133 0.072-0.282 0.11-0.434 0.11s-0.301-0.038-0.434-0.11c-0.506-0.236-1.082-0.278-1.617-0.116-0.458 0.153-0.864 0.432-1.169 0.805-0.299 0.385-0.497 0.838-0.575 1.319-0.097 0.482-0.060 0.982 0.107 1.445 0.187 0.484 0.53 0.893 0.974 1.164 0.589 0.344 1.267 0.506 1.949 0.465 1.54-0.103 2.996-0.734 4.121-1.784-0.565 0-0.916-0.175-1.052-0.427-0.073-0.129-0.112-0.274-0.112-0.422s0.039-0.293 0.112-0.422c0.201-0.347 0.477-0.646 0.809-0.873 0.362-0.261 0.791-0.416 1.237-0.446h0.711c0.302 0 0.643 0 1.033 0 1.468-1.651 2.828-3.394 4.073-5.217 1.403-2.036 2.767-4.092 4.141-6.196s2.631-4.179 3.897-6.216c1.267-2.036 2.543-3.879 3.741-5.469 0.274-0.369 0.677-0.622 1.13-0.708 0.391-0.090 0.801-0.053 1.169 0.107 0.166 0.078 0.313 0.19 0.432 0.329s0.208 0.301 0.26 0.476c0.054 0.218 0.059 0.445 0.013 0.665s-0.14 0.427-0.276 0.605c-1.023 1.581-2.027 3.316-3.030 5.217s-1.949 3.821-2.777 5.75c-0.828 1.93-1.637 3.801-2.26 5.595-0.585 1.558-1.070 3.151-1.452 4.771-0.288 1.091-0.419 2.218-0.39 3.345 0.068 0.853 0.38 1.27 0.974 1.27 0.267-0.010 0.53-0.062 0.78-0.155 0.334-0.116 0.66-0.255 0.974-0.417 0.339-0.188 0.664-0.399 0.974-0.63 0.32-0.226 0.62-0.479 0.896-0.756l1.257-1.27c0.366-0.392 0.711-0.803 1.033-1.232 0.077-0.125 0.184-0.229 0.312-0.302s0.272-0.113 0.419-0.115c0.303-0.023 0.606 0.037 0.877 0.175 0.254 0.115 0.46 0.314 0.585 0.562 0.057 0.125 0.074 0.264 0.050 0.399s-0.089 0.26-0.186 0.357l-1.208 1.445c-0.507 0.611-1.15 1.299-1.949 2.075-0.507 0.475-0.974 0.882-1.384 1.202-0.389 0.312-0.81 0.582-1.257 0.805-0.41 0.205-0.846 0.355-1.296 0.446-0.504 0.094-1.017 0.139-1.53 0.136-0.524 0.044-1.051-0.053-1.524-0.282s-0.876-0.58-1.165-1.018c-0.562-1.049-0.796-2.241-0.672-3.423zM19.17 23.728c0.452-1.962 1.105-3.872 1.949-5.702-0.711 1.125-1.413 2.172-2.085 3.122s-1.315 1.823-1.949 2.628c0.419 0 0.809-0.049 1.169-0.049h0.916zM31.583 17.716c0.074-0.141 0.183-0.262 0.315-0.352s0.285-0.145 0.445-0.162c0.376-0.083 0.765-0.083 1.14 0 0.347 0.073 0.665 0.245 0.916 0.495 0.117 0.114 0.194 0.262 0.219 0.423s-0.004 0.326-0.083 0.469l-0.263 0.533 0.175-0.136c0.635-0.588 1.362-1.070 2.153-1.425 0.481-0.222 1.011-0.316 1.539-0.271 0.413 0.051 0.795 0.243 1.082 0.543 0.303 0.297 0.55 0.645 0.731 1.028 0.265 0.636 0.265 1.352 0 1.988-0.311 0.854-0.693 1.681-1.14 2.473-0.331 0.659-0.672 1.27-1.033 1.852s-0.711 1.183-1.072 1.804c-0.138 0.191-0.222 0.415-0.244 0.65 0 0.107 0.088 0.136 0.224 0.107 0.163-0.046 0.32-0.111 0.468-0.194 0.169-0.103 0.332-0.216 0.487-0.339 0.692-0.53 1.343-1.11 1.949-1.736 0.551-0.55 1.068-1.133 1.549-1.745 0.078-0.133 0.189-0.243 0.322-0.321s0.284-0.121 0.438-0.125c0.293-0.023 0.588 0.037 0.848 0.175 0.244 0.122 0.443 0.319 0.565 0.562 0.057 0.122 0.079 0.257 0.064 0.39s-0.068 0.26-0.151 0.366c-0.156 0.175-0.351 0.436-0.604 0.776s-0.546 0.708-0.877 1.096-0.692 0.785-1.101 1.202c-0.409 0.417-0.809 0.805-1.228 1.164-0.641 0.601-1.374 1.095-2.173 1.464-0.534 0.249-1.116 0.378-1.705 0.378-0.445 0.005-0.878-0.142-1.228-0.417-0.326-0.262-0.589-0.593-0.77-0.97-0.282-0.609-0.321-1.303-0.107-1.939 0.284-0.874 0.652-1.718 1.101-2.521 0.117-0.233 0.263-0.514 0.448-0.844s0.361-0.659 0.555-0.97c0.195-0.31 0.37-0.669 0.536-0.97 0.139-0.268 0.295-0.527 0.468-0.776 0.185-0.33 0.253-0.543 0.224-0.65s-0.127-0.136-0.283-0.107c-0.196 0.041-0.385 0.107-0.565 0.194-0.205 0.107-0.4 0.223-0.585 0.339-0.477 0.33-0.974 0.689-1.471 1.086-0.488 0.383-0.953 0.795-1.393 1.232-0.302 0.708-0.604 1.425-0.916 2.143l-0.877 2.007c-0.273 0.621-0.497 1.154-0.692 1.6s-0.341 0.756-0.429 0.97c-0.092 0.197-0.227 0.371-0.396 0.508s-0.366 0.236-0.578 0.287c-0.415 0.131-0.861 0.131-1.276 0-0.393-0.124-0.721-0.395-0.916-0.756-0.104-0.223-0.151-0.469-0.136-0.714s0.092-0.483 0.224-0.692c0.263-0.592 0.633-1.377 1.091-2.337s0.974-1.939 1.442-3.035l1.432-3.103c0.409-1.134 0.809-1.988 1.14-2.705v0.010zM48.644 16.601l-3.722 6.497c-0.322 0.592-0.643 1.164-0.974 1.697-0.288 0.474-0.545 0.967-0.77 1.474-0.164 0.367-0.298 0.746-0.399 1.135-0.078 0.31-0.039 0.524 0.117 0.64 0.085 0.079 0.19 0.132 0.304 0.152s0.232 0.008 0.339-0.036c0.321-0.091 0.624-0.236 0.896-0.427 0.312-0.204 0.633-0.446 0.974-0.708s0.624-0.533 0.896-0.805l1.257-1.27c0.366-0.392 0.711-0.803 1.033-1.232 0.077-0.125 0.184-0.229 0.312-0.302s0.272-0.113 0.419-0.115c0.303-0.023 0.606 0.037 0.877 0.175 0.254 0.115 0.46 0.314 0.585 0.562 0.057 0.125 0.074 0.264 0.050 0.399s-0.089 0.26-0.186 0.357c-0.302 0.388-0.701 0.873-1.208 1.474s-1.15 1.27-1.949 2.046c-0.507 0.475-0.974 0.882-1.384 1.202-0.389 0.312-0.81 0.582-1.257 0.805-0.41 0.205-0.846 0.355-1.296 0.446-0.488 0.093-0.984 0.138-1.481 0.136-1.53 0-2.416-0.621-2.67-1.852s0.234-2.909 1.461-4.926c0.146-0.271 0.37-0.669 0.672-1.202s0.643-1.144 1.052-1.833l1.276-2.182c0.448-0.776 0.877-1.532 1.296-2.279-0.252 0.031-0.506 0.047-0.76 0.049h-0.809c-0.624 0-1.033-0.126-1.208-0.378-0.087-0.127-0.138-0.276-0.147-0.43s0.025-0.307 0.098-0.443c0.188-0.362 0.467-0.669 0.809-0.892 0.383-0.264 0.831-0.418 1.296-0.446h0.974c0.39 0 0.818 0 1.296 0l0.974-1.61c0.223-0.403 0.593-0.704 1.033-0.844 0.381-0.119 0.789-0.119 1.169 0 0.327 0.095 0.606 0.31 0.78 0.601 0.077 0.152 0.112 0.322 0.102 0.493s-0.065 0.335-0.16 0.477l-0.448 0.756h1.247c0.324 0.025 0.65 0.025 0.974 0 0.448 0 0.711 0.136 0.809 0.388 0.043 0.14 0.056 0.287 0.039 0.432s-0.063 0.285-0.137 0.412c-0.17 0.345-0.413 0.649-0.711 0.892-0.296 0.269-0.681 0.421-1.082 0.427l-2.66 0.087zM62.811 23.728c0.088-0.126 0.204-0.229 0.339-0.302s0.286-0.112 0.44-0.115c0.303-0.021 0.606 0.039 0.877 0.174 0.25 0.121 0.454 0.318 0.585 0.562 0.055 0.125 0.072 0.264 0.048 0.399s-0.088 0.259-0.184 0.358c-0.156 0.175-0.351 0.436-0.604 0.776s-0.555 0.708-0.896 1.096l-1.052 1.193c-0.381 0.41-0.784 0.798-1.208 1.164-0.636 0.598-1.363 1.092-2.153 1.464-0.516 0.248-1.084 0.37-1.656 0.359-0.441-0.015-0.864-0.171-1.208-0.446-0.333-0.276-0.619-0.604-0.848-0.97l-1.549 0.97c-0.771 0.377-1.627 0.547-2.485 0.494-0.709 0.016-1.409-0.169-2.017-0.533-0.572-0.36-1.013-0.894-1.257-1.522-0.282-0.745-0.376-1.548-0.273-2.337 0.136-1.046 0.481-2.055 1.013-2.967 0.534-1.024 1.221-1.962 2.036-2.783 0.727-0.73 1.531-1.38 2.397-1.939 0.734-0.472 1.527-0.846 2.358-1.115 0.628-0.216 1.285-0.337 1.949-0.359 0.331-0.004 0.661 0.049 0.974 0.155 0.272 0.101 0.533 0.227 0.78 0.378 0.245 0.15 0.471 0.329 0.672 0.533 0.192-0.36 0.512-0.636 0.896-0.776 0.39-0.165 0.816-0.228 1.237-0.184 0.33 0.028 0.637 0.181 0.857 0.427 0.185 0.242 0.166 0.562-0.068 0.97l-0.896 1.765c-0.361 0.698-0.731 1.416-1.12 2.143l-1.101 2.046c-0.252 0.473-0.529 0.932-0.828 1.377-0.143 0.201-0.215 0.443-0.205 0.689 0 0.136 0.175 0.194 0.38 0.184 0.256-0.031 0.502-0.117 0.721-0.252 0.299-0.166 0.571-0.375 0.809-0.621 0.507-0.533 0.916-0.97 1.228-1.27 0.371-0.368 0.71-0.767 1.013-1.193v0.010zM56.224 24.969c0.425-0.524 0.791-1.093 1.091-1.697 0.258-0.514 0.469-1.049 0.633-1.6 0.128-0.424 0.181-0.867 0.156-1.309-0.003-0.159-0.041-0.315-0.112-0.458s-0.172-0.268-0.297-0.366c-0.133-0.088-0.284-0.148-0.441-0.175s-0.319-0.020-0.475 0.019c-0.43 0.098-0.84 0.272-1.208 0.514-0.482 0.311-0.933 0.668-1.345 1.067-0.489 0.476-0.944 0.985-1.364 1.522-0.422 0.553-0.797 1.14-1.12 1.755-0.274 0.502-0.493 1.032-0.653 1.581-0.126 0.421-0.173 0.862-0.136 1.299 0.011 0.159 0.054 0.315 0.128 0.456s0.176 0.267 0.3 0.368c0.124 0.091 0.267 0.154 0.419 0.185s0.308 0.027 0.458-0.010c0.436-0.085 0.852-0.249 1.228-0.485 0.494-0.306 0.952-0.667 1.364-1.076 0.503-0.49 0.962-1.022 1.374-1.59zM62.811 23.718c0.706-0.81 1.357-1.665 1.949-2.56 0.682-1.028 1.315-1.939 1.88-2.832-0.379-0.485-0.66-1.038-0.828-1.629-0.195-0.629-0.3-1.282-0.312-1.939-0.020-0.626 0.063-1.252 0.244-1.852 0.173-0.554 0.514-1.041 0.974-1.396 0.526-0.456 1.185-0.732 1.88-0.785 0.546-0.025 1.083 0.14 1.52 0.465 0.428 0.372 0.731 0.866 0.867 1.416 0.196 0.594 0.237 1.228 0.117 1.842-0.087 0.464-0.238 0.915-0.448 1.338-0.244 0.514-0.526 1.057-0.848 1.658 0.398 0.088 0.81 0.088 1.208 0 0.4-0.096 0.819-0.076 1.208 0.058 0.302 0.112 0.565 0.307 0.76 0.562 0.178 0.219 0.275 0.494 0.273 0.776 0.003 0.129-0.019 0.256-0.066 0.376s-0.117 0.229-0.207 0.322c-0.117 0.116-0.361 0.388-0.711 0.795s-0.77 0.921-1.237 1.493c-0.468 0.572-0.974 1.202-1.413 1.852-0.441 0.603-0.851 1.227-1.228 1.872-0.306 0.503-0.561 1.036-0.76 1.59-0.166 0.456-0.146 0.766 0.058 0.912 0.199 0.148 0.438 0.234 0.686 0.246s0.494-0.050 0.707-0.178c0.674-0.278 1.307-0.647 1.88-1.096 0.689-0.502 1.34-1.053 1.949-1.648 0.54-0.511 1.048-1.055 1.52-1.629 0.1-0.112 0.221-0.203 0.356-0.268s0.283-0.102 0.433-0.11c0.291-0.015 0.581 0.038 0.848 0.155 0.243 0.115 0.442 0.305 0.565 0.543 0.055 0.125 0.072 0.264 0.048 0.399s-0.088 0.259-0.184 0.357c-0.594 0.781-1.245 1.516-1.949 2.201-0.823 0.857-1.738 1.621-2.728 2.279-0.939 0.641-1.975 1.129-3.069 1.445-0.48 0.154-0.986 0.21-1.488 0.165s-0.99-0.19-1.435-0.426c-0.362-0.161-0.673-0.416-0.901-0.739s-0.364-0.7-0.395-1.094c-0.080-0.922 0.074-1.849 0.448-2.696 0.423-1.037 0.98-2.015 1.656-2.909 0.666-0.929 1.448-1.77 2.329-2.502 0.153-0.112 0.282-0.254 0.38-0.417 0-0.078-0.292-0.233-0.916-0.475-0.75 1.164-1.471 2.23-2.173 3.21s-1.179 1.639-1.413 1.939c-0.094 0.134-0.218 0.246-0.361 0.326s-0.303 0.128-0.467 0.139c-0.291 0.026-0.582-0.046-0.828-0.204-0.233-0.139-0.415-0.35-0.516-0.601-0.050-0.125-0.063-0.261-0.039-0.393s0.085-0.255 0.175-0.354zM68.549 12.974c-0.111-0.003-0.222 0.021-0.321 0.072s-0.183 0.126-0.245 0.219c-0.144 0.229-0.234 0.488-0.263 0.756-0.049 0.321-0.049 0.648 0 0.97 0.058 0.361 0.18 0.709 0.361 1.028 0.175-0.359 0.341-0.718 0.487-1.076 0.138-0.313 0.245-0.637 0.322-0.97 0.059-0.242 0.059-0.495 0-0.737-0.022-0.074-0.067-0.138-0.128-0.185s-0.135-0.074-0.213-0.077zM81.937 16.591l-3.722 6.507c-0.331 0.592-0.653 1.164-0.974 1.697-0.282 0.476-0.535 0.968-0.76 1.474-0.168 0.365-0.302 0.745-0.4 1.135-0.078 0.31 0 0.524 0.107 0.64 0.087 0.078 0.194 0.131 0.31 0.152s0.235 0.008 0.343-0.035c0.321-0.091 0.624-0.236 0.896-0.427 0.312-0.204 0.633-0.446 0.974-0.708s0.624-0.533 0.896-0.805c0.536-0.533 0.974-0.97 1.247-1.27 0.355-0.391 0.687-0.802 0.994-1.232 0.080-0.136 0.193-0.248 0.33-0.326s0.292-0.12 0.449-0.12c0.303-0.021 0.606 0.039 0.877 0.175 0.25 0.121 0.454 0.318 0.585 0.562 0.055 0.125 0.072 0.264 0.048 0.399s-0.088 0.259-0.184 0.357c-0.302 0.388-0.701 0.873-1.208 1.474s-1.15 1.27-1.949 2.046c-0.507 0.475-0.974 0.882-1.393 1.202-0.387 0.31-0.805 0.58-1.247 0.805-0.414 0.205-0.853 0.355-1.306 0.446-0.488 0.093-0.984 0.138-1.481 0.136-1.52 0-2.407-0.621-2.66-1.852s0.234-2.909 1.452-4.926c0.156-0.271 0.38-0.669 0.672-1.202l1.052-1.833c0.409-0.679 0.828-1.406 1.276-2.182s0.887-1.532 1.306-2.279c-0.252 0.031-0.506 0.047-0.76 0.049h-0.809c-0.633 0-1.033-0.126-1.208-0.378-0.082-0.131-0.126-0.282-0.126-0.436s0.044-0.305 0.126-0.436c0.185-0.364 0.464-0.672 0.809-0.892 0.383-0.264 0.831-0.418 1.296-0.446h0.974c0.39 0 0.818 0 1.296 0l0.974-1.61c0.22-0.379 0.569-0.668 0.984-0.815 0.381-0.119 0.789-0.119 1.169 0 0.324 0.101 0.601 0.314 0.779 0.601 0.075 0.153 0.109 0.324 0.097 0.494s-0.069 0.334-0.165 0.476l-0.448 0.756h1.257c0.325 0.025 0.65 0.025 0.974 0 0.449 0 0.712 0.136 0.799 0.388 0.045 0.139 0.060 0.286 0.045 0.431s-0.061 0.286-0.133 0.413c-0.173 0.342-0.415 0.646-0.712 0.892-0.307 0.265-0.703 0.407-1.111 0.398l-2.64 0.107zM89.381 23.718c0.077-0.125 0.184-0.229 0.312-0.302s0.272-0.113 0.419-0.115c0.303-0.023 0.606 0.037 0.877 0.175 0.253 0.115 0.46 0.314 0.584 0.562 0.056 0.125 0.074 0.264 0.050 0.399s-0.089 0.26-0.186 0.357c-0.302 0.388-0.692 0.873-1.189 1.474-0.61 0.718-1.261 1.401-1.949 2.046-0.506 0.475-0.974 0.882-1.384 1.202-0.389 0.312-0.81 0.582-1.256 0.805-0.411 0.205-0.846 0.355-1.296 0.446-0.488 0.093-0.984 0.138-1.481 0.136-1.53 0-2.416-0.621-2.67-1.852s0.234-2.909 1.461-4.926c0.263-0.446 0.546-0.97 0.848-1.493s0.604-1.096 0.916-1.629l0.896-1.513c0.283-0.475 0.536-0.882 0.741-1.212 0.228-0.393 0.597-0.687 1.032-0.824 0.371-0.117 0.769-0.117 1.14 0 0.324 0.105 0.602 0.317 0.789 0.601 0.078 0.154 0.111 0.327 0.094 0.499s-0.084 0.335-0.192 0.471c-0.322 0.572-0.701 1.232-1.12 1.988l-1.072 2.085c-0.322 0.592-0.643 1.164-0.974 1.697-0.289 0.474-0.546 0.967-0.77 1.474-0.164 0.367-0.298 0.746-0.4 1.135-0.078 0.31-0.039 0.524 0.117 0.64 0.085 0.079 0.19 0.132 0.304 0.152s0.232 0.008 0.339-0.036c0.345-0.090 0.675-0.234 0.974-0.427 0.337-0.219 0.662-0.456 0.974-0.708 0.322-0.272 0.623-0.533 0.896-0.805l1.208-1.27c0.343-0.394 0.664-0.805 0.965-1.232zM91.213 13.779c-0.164 0.28-0.365 0.537-0.595 0.766-0.183 0.187-0.375 0.365-0.575 0.533-0.376 0.229-0.787 0.393-1.218 0.485-0.343 0.091-0.702 0.108-1.053 0.048-0.126-0.018-0.246-0.068-0.347-0.147s-0.179-0.181-0.227-0.299c-0.107-0.233 0-0.562 0.243-0.97 0.121-0.236 0.254-0.466 0.399-0.688 0.185-0.281 0.341-0.543 0.498-0.785 0.107-0.17 0.249-0.316 0.418-0.428s0.357-0.187 0.557-0.222c0.389-0.071 0.79-0.048 1.169 0.068 0.334 0.107 0.618 0.331 0.799 0.63 0.083 0.158 0.12 0.336 0.108 0.514s-0.072 0.349-0.176 0.495zM89.741 22.875c0.531-0.951 1.187-1.828 1.949-2.608 0.723-0.713 1.536-1.332 2.416-1.842 0.772-0.456 1.626-0.758 2.514-0.892 0.79-0.118 1.597-0.042 2.349 0.223 0.276 0.081 0.525 0.236 0.719 0.448s0.326 0.473 0.381 0.754c0.066 0.584-0.021 1.175-0.253 1.716-0.231 0.629-0.56 1.218-0.974 1.746-0.364 0.461-0.772 0.887-1.218 1.27-0.266 0.24-0.616 0.369-0.974 0.359-0.32-0.022-0.626-0.141-0.877-0.339-0.225-0.179-0.393-0.418-0.488-0.689-0.046-0.115-0.055-0.243-0.023-0.363s0.101-0.228 0.198-0.306l0.76-0.756c0.276-0.273 0.533-0.565 0.77-0.873 0.168-0.207 0.288-0.449 0.35-0.708 0-0.194-0.097-0.291-0.399-0.291-0.367 0.019-0.723 0.132-1.032 0.33-0.443 0.271-0.849 0.597-1.208 0.97-0.455 0.436-0.875 0.906-1.257 1.406-0.432 0.547-0.819 1.128-1.16 1.736-0.41 0.637-0.608 1.387-0.565 2.143 0.025 0.282 0.108 0.556 0.243 0.804s0.322 0.467 0.547 0.64c0.511 0.317 1.117 0.448 1.715 0.369 0.896-0.101 1.754-0.413 2.504-0.912 0.387-0.232 0.76-0.485 1.12-0.756 0.39-0.301 0.76-0.611 1.121-0.97s0.691-0.65 0.974-0.97c0.27-0.275 0.525-0.566 0.76-0.873 0.077-0.123 0.183-0.225 0.308-0.298s0.268-0.114 0.413-0.119c0.284-0.019 0.569 0.035 0.828 0.155 0.248 0.112 0.448 0.308 0.565 0.553 0.058 0.127 0.080 0.268 0.062 0.406s-0.072 0.27-0.16 0.379c-0.219 0.317-0.456 0.622-0.711 0.912-0.302 0.339-0.643 0.708-1.033 1.096s-0.798 0.766-1.228 1.154c-0.429 0.388-0.877 0.747-1.325 1.076-0.792 0.639-1.697 1.123-2.669 1.425-0.835 0.251-1.701 0.379-2.573 0.378-0.737 0.001-1.468-0.138-2.153-0.407-0.541-0.192-1.019-0.528-1.384-0.97-0.365-0.449-0.619-0.977-0.74-1.542-0.124-0.544-0.167-1.102-0.127-1.658 0.040-0.588 0.145-1.17 0.312-1.736 0.155-0.547 0.375-1.075 0.653-1.571zM114.918 23.718c0.088-0.126 0.204-0.229 0.339-0.302s0.286-0.112 0.44-0.115c0.303-0.022 0.606 0.038 0.877 0.175 0.253 0.115 0.46 0.314 0.584 0.562 0.056 0.125 0.072 0.264 0.048 0.399s-0.088 0.259-0.184 0.358c-0.146 0.175-0.35 0.436-0.604 0.776s-0.555 0.708-0.896 1.096c-0.341 0.388-0.712 0.785-1.101 1.202-0.381 0.41-0.784 0.798-1.208 1.164-0.631 0.596-1.351 1.090-2.134 1.464-0.517 0.248-1.084 0.37-1.656 0.359-0.44-0.015-0.865-0.171-1.208-0.446-0.333-0.276-0.619-0.604-0.848-0.97l-1.549 0.97c-0.771 0.377-1.628 0.547-2.485 0.494-0.709 0.016-1.409-0.169-2.017-0.533-0.57-0.363-1.011-0.896-1.256-1.522-0.279-0.746-0.37-1.548-0.264-2.337 0.119-1.045 0.451-2.054 0.974-2.967 0.538-1.025 1.228-1.963 2.046-2.783 0.723-0.734 1.527-1.385 2.397-1.939 0.73-0.473 1.519-0.848 2.349-1.115 0.627-0.216 1.284-0.337 1.949-0.359 0.331-0.005 0.66 0.048 0.974 0.155 0.274 0.102 0.538 0.229 0.789 0.378 0.28 0.152 0.541 0.334 0.78 0.543 0.189-0.362 0.509-0.639 0.896-0.776 0.371-0.157 0.776-0.22 1.179-0.184 0.33 0.026 0.638 0.179 0.857 0.427 0.195 0.242 0.166 0.562-0.068 0.97s-0.536 1.067-0.896 1.765-0.731 1.416-1.121 2.143c-0.39 0.727-0.75 1.406-1.101 2.046-0.248 0.485-0.525 0.954-0.829 1.406-0.175 0.33-0.243 0.553-0.195 0.689s0.166 0.194 0.38 0.184c0.253-0.031 0.495-0.117 0.712-0.252 0.299-0.166 0.571-0.375 0.808-0.621 0.507-0.533 0.916-0.97 1.228-1.27 0.376-0.378 0.715-0.79 1.013-1.232zM108.332 24.969c0.808-0.977 1.41-2.104 1.773-3.316 0.126-0.421 0.179-0.861 0.156-1.299-0.004-0.158-0.041-0.313-0.11-0.455s-0.168-0.268-0.29-0.369c-0.141-0.096-0.301-0.159-0.469-0.186s-0.341-0.016-0.505 0.031c-0.429 0.1-0.839 0.274-1.208 0.514-0.483 0.311-0.933 0.668-1.345 1.067-0.486 0.479-0.941 0.987-1.364 1.522-0.419 0.558-0.794 1.148-1.121 1.765-0.275 0.502-0.493 1.032-0.653 1.581-0.124 0.421-0.167 0.862-0.126 1.299 0.008 0.159 0.051 0.314 0.123 0.456s0.173 0.267 0.296 0.369c0.125 0.090 0.269 0.152 0.419 0.183s0.308 0.027 0.458-0.008c0.435-0.085 0.851-0.249 1.228-0.485 0.495-0.308 0.956-0.669 1.373-1.076 0.497-0.493 0.953-1.025 1.364-1.59z"></path>
</svg>
